<svg width="30" height="30" viewBox="0 0 30 30" fill="none" xmlns="http://www.w3.org/2000/svg">
<path fill-rule="evenodd" clip-rule="evenodd" d="M15 30C23.2843 30 30 23.2843 30 15C30 6.71573 23.2843 0 15 0C6.71573 0 0 6.71573 0 15C0 23.2843 6.71573 30 15 30ZM12.2508 21.8751C12.6156 21.8751 12.7823 21.7128 12.9838 21.5166L13.0008 21.5001L14.8022 19.7485L18.55 22.5174C19.2398 22.898 19.7377 22.701 19.9095 21.877L22.3701 10.2816C22.622 9.27156 21.9851 8.81346 21.3252 9.11306L6.87645 14.6844C5.89019 15.08 5.89594 15.6303 6.69667 15.8754L10.4045 17.0327L18.9887 11.6171C19.3939 11.3714 19.7658 11.5035 19.4606 11.7744L12.505 18.0513L12.506 18.052L12.2508 21.8751Z" fill="#81C053"/>
</svg>
