<svg width="30" height="30" viewBox="0 0 30 30" fill="none" xmlns="http://www.w3.org/2000/svg">
<path fill-rule="evenodd" clip-rule="evenodd" d="M15 0C6.71573 0 0 6.71573 0 15C0 23.2843 6.71573 30 15 30C23.2843 30 30 23.2843 30 15C30 6.71573 23.2843 0 15 0ZM16.2221 19.7351C16.0742 19.891 15.7854 19.9225 15.7854 19.9225H14.8292C14.8292 19.9225 12.7194 20.0469 10.8608 18.1481C8.83396 16.0763 7.04424 11.9659 7.04424 11.9659C7.04424 11.9659 6.94095 11.6963 7.05285 11.5665C7.17884 11.4198 7.52239 11.4105 7.52239 11.4105L9.80825 11.3959C9.80825 11.3959 10.0235 11.4305 10.1776 11.5419C10.3052 11.6341 10.3764 11.8054 10.3764 11.8054C10.3764 11.8054 10.7458 12.7225 11.2349 13.5522C12.1904 15.1722 12.6349 15.5263 12.9588 15.3527C13.4315 15.1 13.2899 13.0628 13.2899 13.0628C13.2899 13.0628 13.2985 12.3239 13.052 11.9943C12.861 11.7393 12.501 11.6648 12.3422 11.6441C12.2131 11.6272 12.4243 11.3337 12.6982 11.2024C13.1099 11.0049 13.8361 10.9934 14.6946 11.0019C15.3636 11.0088 15.5562 11.0495 15.8175 11.1117C16.4241 11.2554 16.4052 11.7159 16.3643 12.7098C16.3521 13.007 16.3379 13.3519 16.3379 13.7503C16.3379 13.8399 16.3353 13.9353 16.3325 14.0335C16.3184 14.5427 16.3021 15.1257 16.6439 15.3427C16.8192 15.4534 17.2473 15.3589 18.3186 13.5737C18.8265 12.7272 19.2068 11.7324 19.2068 11.7324C19.2068 11.7324 19.2905 11.5549 19.4197 11.4789C19.5519 11.4013 19.7303 11.4251 19.7303 11.4251L22.1359 11.4105C22.1359 11.4105 22.859 11.3253 22.9756 11.6464C23.0985 11.982 22.7056 12.7671 21.7227 14.053C20.7904 15.2731 20.3366 15.7224 20.3783 16.1196C20.4087 16.4099 20.7037 16.6725 21.2696 17.1879C22.4511 18.2646 22.7678 18.8311 22.8439 18.9672C22.8502 18.9785 22.8549 18.9868 22.8582 18.9923C23.388 19.8549 22.2705 19.9225 22.2705 19.9225L20.1334 19.9517C20.1334 19.9517 19.6748 20.0408 19.0706 19.6337C18.7542 19.4206 18.4449 19.0726 18.1504 18.7411C17.7006 18.2348 17.285 17.7672 16.9303 17.8777C16.3348 18.0636 16.3528 19.3226 16.3528 19.3226C16.3528 19.3226 16.3575 19.5922 16.2221 19.7351Z" fill="#81C053"/>
</svg>
