<svg width="24" height="24" viewBox="0 0 24 24" fill="none" xmlns="http://www.w3.org/2000/svg">
<path fill-rule="evenodd" clip-rule="evenodd" d="M6.5 21H17.5C20.8 21 23 19.4118 23 15.7059V8.29412C23 4.58824 20.8 3 17.5 3H6.5C3.2 3 1 4.58824 1 8.29412V15.7059C1 19.4118 3.2 21 6.5 21ZM18.1865 9.65089C18.6612 9.28594 18.7387 8.61969 18.3595 8.16277C17.9804 7.70586 17.2882 7.6313 16.8135 7.99625L13.3713 10.6427C12.6396 11.2029 11.3504 11.2031 10.6183 10.6432L7.18788 7.99728C6.71378 7.63162 6.0215 7.70514 5.64162 8.16148C5.26174 8.61783 5.33811 9.28419 5.8122 9.64985L9.24419 12.2969L9.24691 12.299C10.7809 13.4745 13.2082 13.4745 14.7422 12.299L18.1865 9.65089Z" fill="#81C053"/>
</svg>
