<svg width="30" height="30" viewBox="0 0 30 30" fill="none" xmlns="http://www.w3.org/2000/svg">
<path fill-rule="evenodd" clip-rule="evenodd" d="M30 15C30 23.2843 23.2843 30 15 30C6.71573 30 0 23.2843 0 15C0 6.71573 6.71573 0 15 0C23.2843 0 30 6.71573 30 15ZM15.49 23.3454H15.4936C20.4114 23.3434 24.4111 19.3427 24.4131 14.426C24.414 12.0428 23.4871 9.80181 21.8031 8.11593C20.1191 6.42996 17.8796 5.50108 15.4936 5.50005C10.5772 5.50005 6.57596 9.50111 6.574 14.419C6.57333 15.991 6.98405 17.5254 7.7646 18.8781L6.49922 23.5L11.2276 22.2597C12.5303 22.9703 13.9972 23.3449 15.49 23.3454Z" fill="#81C053"/>
<path fill-rule="evenodd" clip-rule="evenodd" d="M11.7186 20.8057L11.4479 20.645L8.64205 21.381L9.39098 18.6453L9.21471 18.3648C8.47261 17.1845 8.08066 15.8203 8.08124 14.4195C8.08286 10.332 11.4086 7.00659 15.4978 7.00659C17.478 7.00728 19.3394 7.77938 20.739 9.18069C22.1387 10.582 22.9091 12.4446 22.9083 14.4255C22.9067 18.5133 19.581 21.839 15.4949 21.839H15.4919C14.1616 21.8385 12.8569 21.4811 11.7186 20.8057ZM19.6848 16.3465C19.8402 16.4216 19.9452 16.4723 19.99 16.5471C20.0457 16.6401 20.0457 17.0863 19.8601 17.607C19.6743 18.1275 18.784 18.6027 18.3557 18.6666C17.9718 18.724 17.4859 18.748 16.952 18.5783C16.6283 18.4756 16.2132 18.3385 15.6815 18.1089C13.5922 17.2067 12.1802 15.1817 11.9133 14.7989C11.8946 14.7721 11.8816 14.7534 11.8743 14.7436L11.8725 14.7412C11.7545 14.5839 10.9642 13.5294 10.9642 12.4382C10.9642 11.4116 11.4685 10.8735 11.7006 10.6258C11.7165 10.6088 11.7312 10.5932 11.7443 10.5789C11.9485 10.3558 12.19 10.3 12.3386 10.3C12.4871 10.3 12.6359 10.3014 12.7657 10.3079C12.7817 10.3087 12.7984 10.3086 12.8156 10.3085C12.9455 10.3078 13.1074 10.3068 13.2672 10.6905C13.3286 10.8381 13.4185 11.057 13.5134 11.2879C13.7051 11.7548 13.917 12.2707 13.9543 12.3453C14.01 12.4569 14.0472 12.587 13.9729 12.7358C13.9617 12.7581 13.9514 12.7791 13.9416 12.7993C13.8858 12.9132 13.8447 12.997 13.75 13.1075C13.7128 13.151 13.6743 13.1979 13.6358 13.2448C13.5591 13.3381 13.4825 13.4315 13.4157 13.498C13.3041 13.6091 13.188 13.7297 13.318 13.9528C13.448 14.176 13.8953 14.9058 14.5578 15.4967C15.27 16.132 15.889 16.4005 16.2028 16.5366C16.2641 16.5632 16.3137 16.5847 16.3501 16.6029C16.5729 16.7145 16.7029 16.6958 16.8329 16.5471C16.9629 16.3984 17.39 15.8963 17.5386 15.6733C17.6871 15.4502 17.8358 15.4874 18.04 15.5617C18.2443 15.6362 19.3401 16.1753 19.5629 16.2868C19.6064 16.3086 19.6471 16.3282 19.6848 16.3465Z" fill="#81C053"/>
</svg>
