<svg width="37" height="36" viewBox="0 0 37 36" fill="none" xmlns="http://www.w3.org/2000/svg">
<path d="M18.6668 18.75C20.3236 18.75 21.6668 17.4068 21.6668 15.75C21.6668 14.0931 20.3236 12.75 18.6668 12.75C17.0099 12.75 15.6668 14.0931 15.6668 15.75C15.6668 17.4068 17.0099 18.75 18.6668 18.75ZM18.6668 18.75V23.25M32.0318 16.68C32.0318 24.015 26.7068 30.8849 19.4318 32.8949C18.9368 33.0299 18.3967 33.0299 17.9017 32.8949C10.6267 30.8849 5.30176 24.015 5.30176 16.68V10.0949C5.30176 8.86493 6.23178 7.46993 7.38678 7.00493L15.7417 3.58498C17.6167 2.81998 19.7318 2.81998 21.6068 3.58498L29.9618 7.00493C31.1018 7.46993 32.0468 8.86493 32.0468 10.0949L32.0318 16.68Z" stroke="url(#paint0_linear_40_102)" stroke-width="3" stroke-miterlimit="10" stroke-linecap="round" stroke-linejoin="round"/>
<defs>
<linearGradient id="paint0_linear_40_102" x1="22.0001" y1="12.5" x2="-5.49988" y2="40.5" gradientUnits="userSpaceOnUse">
<stop stop-color="#81C053"/>
<stop offset="1" stop-color="#1E8B82"/>
</linearGradient>
</defs>
</svg>
