<svg aria-hidden="true" xmlns="http://www.w3.org/2000/svg" xmlns:xlink="http://www.w3.org/1999/xlink"><symbol viewBox="0 0 14 7" fill="none" id="icon-arrow" xmlns="http://www.w3.org/2000/svg">
<path d="M13 1L8.06061 5.59317C7.47727 6.13561 6.52273 6.13561 5.93939 5.59317L1 1" stroke="currentColor" stroke-width="1.5" stroke-miterlimit="10" stroke-linecap="round" stroke-linejoin="round"/>
</symbol><symbol viewBox="0 0 24 24" fill="none" id="icon-location" xmlns="http://www.w3.org/2000/svg">
<path fill-rule="evenodd" clip-rule="evenodd" d="M20.3797 8.5C18.4197 -0.159997 5.58971 -0.169998 3.61971 8.49C2.46971 13.57 5.62971 17.88 8.38971 20.54C10.4097 22.48 13.5897 22.48 15.5997 20.54C18.3697 17.88 21.5297 13.58 20.3797 8.5ZM15.1198 10.3099C15.1198 12.0331 13.7229 13.4299 11.9998 13.4299C10.2766 13.4299 8.87976 12.0331 8.87976 10.3099C8.87976 8.58681 10.2766 7.18994 11.9998 7.18994C13.7229 7.18994 15.1198 8.58681 15.1198 10.3099Z" fill="currentColor"/>
</symbol><symbol viewBox="0 0 24 24" fill="none" id="icon-mail" xmlns="http://www.w3.org/2000/svg">
<path fill-rule="evenodd" clip-rule="evenodd" d="M6.5 21H17.5C20.8 21 23 19.4118 23 15.7059V8.29412C23 4.58824 20.8 3 17.5 3H6.5C3.2 3 1 4.58824 1 8.29412V15.7059C1 19.4118 3.2 21 6.5 21ZM18.1865 9.65089C18.6612 9.28594 18.7387 8.61969 18.3595 8.16277C17.9804 7.70586 17.2882 7.6313 16.8135 7.99625L13.3713 10.6427C12.6396 11.2029 11.3504 11.2031 10.6183 10.6432L7.18788 7.99728C6.71378 7.63162 6.0215 7.70514 5.64162 8.16148C5.26174 8.61783 5.33811 9.28419 5.8122 9.64985L9.24419 12.2969L9.24691 12.299C10.7809 13.4745 13.2082 13.4745 14.7422 12.299L18.1865 9.65089Z" fill="currentColor"/>
</symbol><symbol viewBox="0 0 15 15" fill="none" id="icon-plus" xmlns="http://www.w3.org/2000/svg">
<path fill-rule="evenodd" clip-rule="evenodd" d="M7.5 0C9.20559 0 10.5882 1.38265 10.5882 3.08824V4.41176H11.9118C13.6174 4.41176 15 5.79441 15 7.5C15 9.20559 13.6174 10.5882 11.9118 10.5882H10.5882V11.9118C10.5882 13.6174 9.20559 15 7.5 15C5.79441 15 4.41176 13.6174 4.41176 11.9118V10.5882H3.08824C1.38265 10.5882 0 9.20559 0 7.5C0 5.79441 1.38265 4.41176 3.08824 4.41176H4.41176V3.08824C4.41176 1.38265 5.79441 0 7.5 0Z" fill="currentColor"/>
</symbol><symbol viewBox="0 0 24 24" fill="none" id="icon-tel" xmlns="http://www.w3.org/2000/svg">
<path d="M21.97 18.33C21.97 18.69 21.89 19.06 21.72 19.42C21.55 19.78 21.33 20.12 21.04 20.44C20.55 20.98 20.01 21.37 19.4 21.62C18.8 21.87 18.15 22 17.45 22C16.43 22 15.34 21.76 14.19 21.27C13.04 20.78 11.89 20.12 10.75 19.29C9.6 18.45 8.51 17.52 7.47 16.49C6.44 15.45 5.51 14.36 4.68 13.22C3.86 12.08 3.2 10.94 2.72 9.81C2.24 8.67 2 7.58 2 6.54C2 5.86 2.12 5.21 2.36 4.61C2.6 4 2.98 3.44 3.51 2.94C4.15 2.31 4.85 2 5.59 2C5.87 2 6.15 2.06 6.4 2.18C6.66 2.3 6.89 2.48 7.07 2.74L9.39 6.01C9.57 6.26 9.7 6.49 9.79 6.71C9.88 6.92 9.93 7.13 9.93 7.32C9.93 7.56 9.86 7.8 9.72 8.03C9.59 8.26 9.4 8.5 9.16 8.74L8.4 9.53C8.29 9.64 8.24 9.77 8.24 9.93C8.24 10.01 8.25 10.08 8.27 10.16C8.3 10.24 8.33 10.3 8.35 10.36C8.53 10.69 8.84 11.12 9.28 11.64C9.73 12.16 10.21 12.69 10.73 13.22C11.27 13.75 11.79 14.24 12.32 14.69C12.84 15.13 13.27 15.43 13.61 15.61C13.66 15.63 13.72 15.66 13.79 15.69C13.87 15.72 13.95 15.73 14.04 15.73C14.21 15.73 14.34 15.67 14.45 15.56L15.21 14.81C15.46 14.56 15.7 14.37 15.93 14.25C16.16 14.11 16.39 14.04 16.64 14.04C16.83 14.04 17.03 14.08 17.25 14.17C17.47 14.26 17.7 14.39 17.95 14.56L21.26 16.91C21.52 17.09 21.7 17.3 21.81 17.55C21.91 17.8 21.97 18.05 21.97 18.33Z" fill="currentColor"/>
</symbol><symbol viewBox="0 0 30 30" fill="none" id="icon-tg" xmlns="http://www.w3.org/2000/svg">
<path fill-rule="evenodd" clip-rule="evenodd" d="M15 30C23.2843 30 30 23.2843 30 15C30 6.71573 23.2843 0 15 0C6.71573 0 0 6.71573 0 15C0 23.2843 6.71573 30 15 30ZM12.2508 21.8751C12.6156 21.8751 12.7823 21.7128 12.9838 21.5166L13.0008 21.5001L14.8022 19.7485L18.55 22.5174C19.2398 22.898 19.7377 22.701 19.9095 21.877L22.3701 10.2816C22.622 9.27156 21.9851 8.81346 21.3252 9.11306L6.87645 14.6844C5.89019 15.08 5.89594 15.6303 6.69667 15.8754L10.4045 17.0327L18.9887 11.6171C19.3939 11.3714 19.7658 11.5035 19.4606 11.7744L12.505 18.0513L12.506 18.052L12.2508 21.8751Z" fill="currentColor"/>
</symbol><symbol viewBox="0 0 10 16" fill="none" id="icon-triangle" xmlns="http://www.w3.org/2000/svg">
<path d="M8.79289 7.29289L2.30467 0.804671C1.57006 0.0700579 0.341212 0.80404 0.639737 1.79912L2.4138 7.71265C2.47003 7.90009 2.47003 8.09991 2.4138 8.28735L0.639738 14.2009C0.341212 15.196 1.57005 15.9299 2.30467 15.1953L8.79289 8.70711C9.18342 8.31658 9.18342 7.68342 8.79289 7.29289Z" fill="currentColor"/>
</symbol><symbol viewBox="0 0 30 30" fill="none" id="icon-vk" xmlns="http://www.w3.org/2000/svg">
<path fill-rule="evenodd" clip-rule="evenodd" d="M15 0C6.71573 0 0 6.71573 0 15C0 23.2843 6.71573 30 15 30C23.2843 30 30 23.2843 30 15C30 6.71573 23.2843 0 15 0ZM16.2221 19.7351C16.0742 19.891 15.7854 19.9225 15.7854 19.9225H14.8292C14.8292 19.9225 12.7194 20.0469 10.8608 18.1481C8.83396 16.0763 7.04424 11.9659 7.04424 11.9659C7.04424 11.9659 6.94095 11.6963 7.05285 11.5665C7.17884 11.4198 7.52239 11.4105 7.52239 11.4105L9.80825 11.3959C9.80825 11.3959 10.0235 11.4305 10.1776 11.5419C10.3052 11.6341 10.3764 11.8054 10.3764 11.8054C10.3764 11.8054 10.7458 12.7225 11.2349 13.5522C12.1904 15.1722 12.6349 15.5263 12.9588 15.3527C13.4315 15.1 13.2899 13.0628 13.2899 13.0628C13.2899 13.0628 13.2985 12.3239 13.052 11.9943C12.861 11.7393 12.501 11.6648 12.3422 11.6441C12.2131 11.6272 12.4243 11.3337 12.6982 11.2024C13.1099 11.0049 13.8361 10.9934 14.6946 11.0019C15.3636 11.0088 15.5562 11.0495 15.8175 11.1117C16.4241 11.2554 16.4052 11.7159 16.3643 12.7098C16.3521 13.007 16.3379 13.3519 16.3379 13.7503C16.3379 13.8399 16.3353 13.9353 16.3325 14.0335C16.3184 14.5427 16.3021 15.1257 16.6439 15.3427C16.8192 15.4534 17.2473 15.3589 18.3186 13.5737C18.8265 12.7272 19.2068 11.7324 19.2068 11.7324C19.2068 11.7324 19.2905 11.5549 19.4197 11.4789C19.5519 11.4013 19.7303 11.4251 19.7303 11.4251L22.1359 11.4105C22.1359 11.4105 22.859 11.3253 22.9756 11.6464C23.0985 11.982 22.7056 12.7671 21.7227 14.053C20.7904 15.2731 20.3366 15.7224 20.3783 16.1196C20.4087 16.4099 20.7037 16.6725 21.2696 17.1879C22.4511 18.2646 22.7678 18.8311 22.8439 18.9672C22.8502 18.9785 22.8549 18.9868 22.8582 18.9923C23.388 19.8549 22.2705 19.9225 22.2705 19.9225L20.1334 19.9517C20.1334 19.9517 19.6748 20.0408 19.0706 19.6337C18.7542 19.4206 18.4449 19.0726 18.1504 18.7411C17.7006 18.2348 17.285 17.7672 16.9303 17.8777C16.3348 18.0636 16.3528 19.3226 16.3528 19.3226C16.3528 19.3226 16.3575 19.5922 16.2221 19.7351Z" fill="currentColor"/>
</symbol><symbol viewBox="0 0 30 30" fill="none" id="icon-wh" xmlns="http://www.w3.org/2000/svg">
<path fill-rule="evenodd" clip-rule="evenodd" d="M30 15C30 23.2843 23.2843 30 15 30C6.71573 30 0 23.2843 0 15C0 6.71573 6.71573 0 15 0C23.2843 0 30 6.71573 30 15ZM15.49 23.3454H15.4936C20.4114 23.3434 24.4111 19.3427 24.4131 14.426C24.414 12.0428 23.4871 9.80181 21.8031 8.11593C20.1191 6.42996 17.8796 5.50108 15.4936 5.50005C10.5772 5.50005 6.57596 9.50111 6.574 14.419C6.57333 15.991 6.98405 17.5254 7.7646 18.8781L6.49922 23.5L11.2276 22.2597C12.5303 22.9703 13.9972 23.3449 15.49 23.3454Z" fill="currentColor"/>
<path fill-rule="evenodd" clip-rule="evenodd" d="M11.7186 20.8057L11.4479 20.645L8.64205 21.381L9.39098 18.6453L9.21471 18.3648C8.47261 17.1845 8.08066 15.8203 8.08124 14.4195C8.08286 10.332 11.4086 7.00659 15.4978 7.00659C17.478 7.00728 19.3394 7.77938 20.739 9.18069C22.1387 10.582 22.9091 12.4446 22.9083 14.4255C22.9067 18.5133 19.581 21.839 15.4949 21.839H15.4919C14.1616 21.8385 12.8569 21.4811 11.7186 20.8057ZM19.6848 16.3465C19.8402 16.4216 19.9452 16.4723 19.99 16.5471C20.0457 16.6401 20.0457 17.0863 19.8601 17.607C19.6743 18.1275 18.784 18.6027 18.3557 18.6666C17.9718 18.724 17.4859 18.748 16.952 18.5783C16.6283 18.4756 16.2132 18.3385 15.6815 18.1089C13.5922 17.2067 12.1802 15.1817 11.9133 14.7989C11.8946 14.7721 11.8816 14.7534 11.8743 14.7436L11.8725 14.7412C11.7545 14.5839 10.9642 13.5294 10.9642 12.4382C10.9642 11.4116 11.4685 10.8735 11.7006 10.6258C11.7165 10.6088 11.7312 10.5932 11.7443 10.5789C11.9485 10.3558 12.19 10.3 12.3386 10.3C12.4871 10.3 12.6359 10.3014 12.7657 10.3079C12.7817 10.3087 12.7984 10.3086 12.8156 10.3085C12.9455 10.3078 13.1074 10.3068 13.2672 10.6905C13.3286 10.8381 13.4185 11.057 13.5134 11.2879C13.7051 11.7548 13.917 12.2707 13.9543 12.3453C14.01 12.4569 14.0472 12.587 13.9729 12.7358C13.9617 12.7581 13.9514 12.7791 13.9416 12.7993C13.8858 12.9132 13.8447 12.997 13.75 13.1075C13.7128 13.151 13.6743 13.1979 13.6358 13.2448C13.5591 13.3381 13.4825 13.4315 13.4157 13.498C13.3041 13.6091 13.188 13.7297 13.318 13.9528C13.448 14.176 13.8953 14.9058 14.5578 15.4967C15.27 16.132 15.889 16.4005 16.2028 16.5366C16.2641 16.5632 16.3137 16.5847 16.3501 16.6029C16.5729 16.7145 16.7029 16.6958 16.8329 16.5471C16.9629 16.3984 17.39 15.8963 17.5386 15.6733C17.6871 15.4502 17.8358 15.4874 18.04 15.5617C18.2443 15.6362 19.3401 16.1753 19.5629 16.2868C19.6064 16.3086 19.6471 16.3282 19.6848 16.3465Z" fill="currentColor"/>
</symbol></svg>