<svg width="15" height="15" viewBox="0 0 15 15" fill="none" xmlns="http://www.w3.org/2000/svg">
<path fill-rule="evenodd" clip-rule="evenodd" d="M7.5 0C9.20559 0 10.5882 1.38265 10.5882 3.08824V4.41176H11.9118C13.6174 4.41176 15 5.79441 15 7.5C15 9.20559 13.6174 10.5882 11.9118 10.5882H10.5882V11.9118C10.5882 13.6174 9.20559 15 7.5 15C5.79441 15 4.41176 13.6174 4.41176 11.9118V10.5882H3.08824C1.38265 10.5882 0 9.20559 0 7.5C0 5.79441 1.38265 4.41176 3.08824 4.41176H4.41176V3.08824C4.41176 1.38265 5.79441 0 7.5 0Z" fill="#81C053"/>
</svg>
